<svg width="46" height="46" viewBox="0 0 46 46" fill="none" xmlns="http://www.w3.org/2000/svg">
<path d="M33.6911 8.49471L29.8578 6.48221C26.4921 4.71696 24.8093 3.83337 23 3.83337C21.1906 3.83337 19.5078 4.71504 16.1421 6.48221L15.5269 6.80612L32.6293 16.5792L40.3266 12.7267C39.0885 11.3237 37.0913 10.2753 33.6911 8.49087M41.6836 15.2644L34.0208 19.0977V24.9167C34.0208 25.298 33.8694 25.6636 33.5998 25.9332C33.3302 26.2028 32.9646 26.3542 32.5833 26.3542C32.2021 26.3542 31.8364 26.2028 31.5668 25.9332C31.2973 25.6636 31.1458 25.298 31.1458 24.9167V20.5352L24.4375 23.8894V41.9827C25.8136 41.6396 27.3796 40.8193 29.8578 39.5179L33.6911 37.5054C37.8139 35.3415 39.8762 34.2605 41.0224 32.315C42.1666 30.3715 42.1666 27.9508 42.1666 23.115V22.8908C42.1666 19.2625 42.1666 16.9932 41.6836 15.2644ZM21.5625 41.9827V23.8894L4.31631 15.2644C3.83331 16.9932 3.83331 19.2625 3.83331 22.887V23.1112C3.83331 27.9508 3.83331 30.3715 4.97756 32.315C6.12373 34.2605 8.18606 35.3434 12.3088 37.5073L16.1421 39.5179C18.6204 40.8193 20.1863 41.6396 21.5625 41.9827ZM5.67331 12.7286L23 21.392L29.5377 18.124L12.5062 8.39121L12.3088 8.49471C8.91056 10.2772 6.91148 11.3256 5.67331 12.7305" fill="#AEA3EC"/>
</svg>
