<svg width="50" height="50" viewBox="0 0 50 50" fill="none" xmlns="http://www.w3.org/2000/svg">
<path d="M38.1836 46.875C36.2773 46.875 33.5996 46.1855 29.5898 43.9453C24.7139 41.2109 20.9424 38.6865 16.0928 33.8496C11.417 29.1767 9.14159 26.1513 5.95702 20.3564C2.35937 13.8134 2.97265 10.3837 3.6582 8.91792C4.4746 7.16596 5.67968 6.11811 7.2373 5.07807C8.12201 4.49842 9.05827 4.00153 10.0342 3.5937C10.1318 3.55171 10.2227 3.51167 10.3037 3.47553C10.7871 3.25776 11.5195 2.92866 12.4473 3.28022C13.0664 3.51264 13.6191 3.98823 14.4844 4.84272C16.2588 6.59272 18.6836 10.4902 19.5781 12.4042C20.1787 13.6943 20.5762 14.5458 20.5771 15.5009C20.5771 16.6191 20.0146 17.4814 19.332 18.4121C19.2041 18.5869 19.0771 18.7539 18.9541 18.916C18.2109 19.8925 18.0478 20.1748 18.1553 20.6787C18.373 21.6914 19.9971 24.706 22.666 27.3691C25.335 30.0322 28.2627 31.5537 29.2793 31.7705C29.8047 31.8828 30.0928 31.7128 31.1006 30.9433C31.2451 30.833 31.3935 30.7187 31.5488 30.6044C32.5898 29.83 33.4121 29.2822 34.5039 29.2822H34.5098C35.46 29.2822 36.2734 29.6943 37.6211 30.374C39.3789 31.2607 43.3936 33.6542 45.1543 35.4306C46.0107 36.2939 46.4883 36.8447 46.7217 37.4628C47.0732 38.3935 46.7422 39.123 46.5264 39.6113C46.4902 39.6923 46.4502 39.7812 46.4082 39.8798C45.9971 40.854 45.4973 41.7883 44.915 42.6709C43.8769 44.2236 42.8252 45.4257 41.0693 46.2431C40.1677 46.6697 39.181 46.8857 38.1836 46.875Z" fill="#AEA3EC"/>
</svg>
