<svg viewBox="0 0 50 50" fill="none" xmlns="http://www.w3.org/2000/svg">
<path d="M37.5 6.25C39.7102 6.25 41.8298 7.12797 43.3926 8.69078C44.9554 10.2536 45.8334 12.3732 45.8334 14.5833V31.25C45.8334 33.4601 44.9554 35.5798 43.3926 37.1426C41.8298 38.7054 39.7102 39.5833 37.5 39.5833H32.1125L26.4729 45.2229C26.1142 45.5816 25.6369 45.7971 25.1306 45.8289C24.6243 45.8608 24.1238 45.7068 23.7229 45.3958L23.5271 45.2229L17.8854 39.5833H12.5C10.362 39.5833 8.3058 38.7616 6.75666 37.2881C5.20753 35.8146 4.284 33.802 4.1771 31.6667L4.16669 31.25V14.5833C4.16669 12.3732 5.04466 10.2536 6.60746 8.69078C8.17027 7.12797 10.2899 6.25 12.5 6.25H37.5ZM29.1667 25H16.6667C16.1142 25 15.5842 25.2195 15.1935 25.6102C14.8028 26.0009 14.5834 26.5308 14.5834 27.0833C14.5834 27.6359 14.8028 28.1658 15.1935 28.5565C15.5842 28.9472 16.1142 29.1667 16.6667 29.1667H29.1667C29.7192 29.1667 30.2491 28.9472 30.6398 28.5565C31.0305 28.1658 31.25 27.6359 31.25 27.0833C31.25 26.5308 31.0305 26.0009 30.6398 25.6102C30.2491 25.2195 29.7192 25 29.1667 25ZM33.3334 16.6667H16.6667C16.1142 16.6667 15.5842 16.8862 15.1935 17.2769C14.8028 17.6676 14.5834 18.1975 14.5834 18.75C14.5834 19.3025 14.8028 19.8324 15.1935 20.2231C15.5842 20.6138 16.1142 20.8333 16.6667 20.8333H33.3334C33.8859 20.8333 34.4158 20.6138 34.8065 20.2231C35.1972 19.8324 35.4167 19.3025 35.4167 18.75C35.4167 18.1975 35.1972 17.6676 34.8065 17.2769C34.4158 16.8862 33.8859 16.6667 33.3334 16.6667Z" fill="#AEA3EC"/>
</svg>
