<svg width="46" height="46" viewBox="0 0 46 46" fill="none" xmlns="http://www.w3.org/2000/svg">
<path d="M34.5 15.3333C34.5 16.35 34.0961 17.325 33.3772 18.0439C32.6583 18.7628 31.6833 19.1667 30.6666 19.1667C29.65 19.1667 28.675 18.7628 27.9561 18.0439C27.2372 17.325 26.8333 16.35 26.8333 15.3333C26.8333 14.3167 27.2372 13.3416 27.9561 12.6228C28.675 11.9039 29.65 11.5 30.6666 11.5C31.6833 11.5 32.6583 11.9039 33.3772 12.6228C34.0961 13.3416 34.5 14.3167 34.5 15.3333Z" fill="#AEA3EC"/>
<path fill-rule="evenodd" clip-rule="evenodd" d="M23.1092 2.39587H22.8907C18.4651 2.39587 14.9979 2.39587 12.2916 2.76004C9.5239 3.13187 7.3389 3.91004 5.62348 5.62354C3.90806 7.33896 3.13181 9.52396 2.75998 12.2935C2.39581 14.998 2.39581 18.4652 2.39581 22.8908V23.1093C2.39581 27.5349 2.39581 31.0021 2.75998 33.7085C3.13181 36.4761 3.90998 38.6611 5.62348 40.3765C7.3389 42.092 9.5239 42.8682 12.2935 43.24C14.9979 43.6042 18.4651 43.6042 22.8907 43.6042H23.1092C27.5348 43.6042 31.0021 43.6042 33.7084 43.24C36.4761 42.8682 38.6611 42.09 40.3765 40.3765C42.0919 38.6611 42.8681 36.4761 43.24 33.7065C43.6041 31.0021 43.6041 27.5349 43.6041 23.1093V22.8908C43.6041 18.4652 43.6041 14.998 43.24 12.2916C42.8681 9.52396 42.09 7.33896 40.3765 5.62354C38.6611 3.90812 36.4761 3.13187 33.7065 2.76004C31.0021 2.39587 27.5348 2.39587 23.1092 2.39587ZM7.65706 7.65712C8.74956 6.56462 10.2254 5.93787 12.6768 5.60821C15.1685 5.27471 18.4421 5.27087 23 5.27087C27.5578 5.27087 30.8315 5.27471 33.3231 5.60821C35.7746 5.93787 37.2523 6.56654 38.3448 7.65712C39.4354 8.74962 40.0621 10.2255 40.3918 12.6769C40.7253 15.1685 40.7291 18.4422 40.7291 23L40.7272 25.4534L40.3017 25.3959C34.8507 24.6407 29.8636 27.4735 27.3221 31.7458C24.0446 23.4562 15.387 17.802 5.71356 19.1916L5.2804 19.253C5.30148 16.56 5.37431 14.4249 5.60815 12.6769C5.93781 10.2255 6.56648 8.74962 7.65706 7.65712Z" fill="#AEA3EC"/>
</svg>
