<svg width="50" height="50" viewBox="0 0 50 50" fill="none" xmlns="http://www.w3.org/2000/svg">
<path fill-rule="evenodd" clip-rule="evenodd" d="M6.60835 10.775C4.16669 13.2146 4.16669 17.1438 4.16669 25C4.16669 32.8563 4.16669 36.7855 6.60835 39.225C9.05002 41.6646 12.9771 41.6667 20.8334 41.6667H29.1667C37.0229 41.6667 40.9521 41.6667 43.3917 39.225C45.8313 36.7834 45.8334 32.8563 45.8334 25C45.8334 17.1438 45.8334 13.2146 43.3917 10.775C40.95 8.33546 37.0229 8.33337 29.1667 8.33337H20.8334C12.9771 8.33337 9.04794 8.33337 6.60835 10.775ZM38.7 15.6667C38.9651 15.985 39.093 16.3956 39.0555 16.8081C39.018 17.2207 38.8182 17.6014 38.5 17.8667L33.925 21.6792C32.0771 23.2209 30.5813 24.4667 29.2584 25.3167C27.8834 26.2021 26.5438 26.7605 25 26.7605C23.4563 26.7605 22.1167 26.2 20.7396 25.3167C19.4188 24.4667 17.9229 23.2188 16.075 21.6813L11.5 17.8688C11.1815 17.6036 10.9814 17.2227 10.9436 16.8099C10.9059 16.3971 11.0338 15.9863 11.299 15.6677C11.5642 15.3492 11.9451 15.1491 12.3579 15.1114C12.7706 15.0737 13.1815 15.2015 13.5 15.4667L18 19.2146C19.9438 20.8334 21.2917 21.9542 22.4334 22.6875C23.5354 23.3959 24.2834 23.6355 25.0021 23.6355C25.7209 23.6355 26.4688 23.398 27.5709 22.6875C28.7104 21.9542 30.0604 20.8334 32.0042 19.2146L36.5021 15.4646C36.8207 15.1998 37.2314 15.0723 37.6439 15.1102C38.0565 15.1481 38.435 15.3482 38.7 15.6667Z" fill="#AEA3EC"/>
</svg>
